<svg width="136" height="30" viewBox="0 0 136 30" fill="none" xmlns="http://www.w3.org/2000/svg">
<g clip-path="url(#clip0_4_2118)">
<path d="M40.9334 7.62553C41.3545 7.62553 41.7667 7.67441 42.1745 7.77218C42.5823 7.86994 42.9502 8.01659 43.287 8.21656C43.6239 8.41208 43.8987 8.69649 44.107 9.06088C44.3153 9.42527 44.4084 9.89186 44.3818 10.4518H49.0048C48.9783 9.3275 48.7522 8.34543 48.3311 7.50111C47.91 6.65679 47.3205 5.97244 46.567 5.43475C45.8091 4.90149 44.9403 4.50155 43.9608 4.23492C42.9812 3.9683 41.913 3.83498 40.765 3.83498C38.7482 3.83498 37.0861 4.24381 35.7829 5.05702C34.4798 5.87024 33.8282 7.12339 33.8282 8.80758C33.8016 9.93186 34.0321 10.8384 34.5197 11.5272C35.0117 12.216 35.6455 12.7625 36.4301 13.1714C37.2146 13.5802 38.0479 13.909 38.93 14.1623C39.812 14.4156 40.6453 14.6556 41.4298 14.8778C42.2144 15.1044 42.8526 15.3622 43.3402 15.6555C43.8322 15.9487 44.076 16.3665 44.076 16.8997C44.1026 17.1263 44.0361 17.3619 43.8677 17.6152C43.6992 17.8685 43.42 18.0862 43.0255 18.2684C42.631 18.4506 42.0991 18.5439 41.4298 18.5439C40.5611 18.5439 39.9007 18.4017 39.453 18.1218C39.0053 17.8418 38.6906 17.5263 38.5089 17.1752C38.3271 16.8242 38.2208 16.4998 38.1942 16.2065C38.1676 15.9132 38.1543 15.7488 38.1543 15.7221H33.4869C33.4869 16.8153 33.6908 17.744 34.0986 18.5039C34.5064 19.2638 35.0427 19.8859 35.7164 20.3792C36.3902 20.8725 37.0949 21.2502 37.8396 21.5168C38.5798 21.7834 39.289 21.9656 39.9627 22.0634C40.6364 22.1612 41.1683 22.21 41.5584 22.21C43.0698 22.21 44.373 22.019 45.4678 21.6412C46.5626 21.2635 47.4092 20.708 48.012 19.9748C48.6148 19.246 48.9162 18.3306 48.9162 17.2374C48.9162 16.1443 48.6636 15.3044 48.1583 14.6467C47.653 13.989 47.0103 13.4602 46.2257 13.0647C45.4412 12.6737 44.5946 12.3493 43.6815 12.096C42.7729 11.8427 41.9218 11.6027 41.1373 11.3805C40.3528 11.1583 39.7101 10.8828 39.2048 10.5584C38.6995 10.234 38.4468 9.78077 38.4468 9.18975C38.4468 8.79869 38.6374 8.43875 39.0142 8.11435C39.3909 7.78995 40.0292 7.62998 40.9245 7.62998L40.9334 7.62553Z" fill="white"/>
<path d="M59.3413 16.6464L55.3476 4.42601H50.1351L56.9034 21.8279L56.0613 23.6809C55.6978 24.4941 55.3521 25.0718 55.0329 25.4096C54.7094 25.7473 54.3725 25.9428 54.0223 26.0006C53.6722 26.0584 53.2999 26.085 52.9098 26.085H50.0952V30.0044H53.6677C54.5941 30.0044 55.3787 29.9333 56.0214 29.7956C56.6641 29.6534 57.2403 29.3868 57.7456 28.9957C58.2509 28.6002 58.734 28.0181 59.195 27.2449C59.656 26.4716 60.1701 25.4407 60.7286 24.1475L68.8843 4.42601H63.6717L59.3413 16.6464Z" fill="white"/>
<path d="M87.4783 8.97645C87.3231 8.16323 87.035 7.41223 86.6184 6.72345C86.1973 6.03466 85.5945 5.47919 84.81 5.05703C84.0254 4.63487 83.0148 4.42601 81.7826 4.42601C80.6612 4.42601 79.7348 4.59487 79.0079 4.9326C78.281 5.27033 77.7136 5.65694 77.3059 6.09243C76.8981 6.52792 76.6144 6.92786 76.446 7.29225C76.2775 7.65664 76.18 7.85217 76.1534 7.88328H76.0692L75.2271 4.42601H70.8567V21.7879H76.0692V13.4869C76.0692 12.7003 76.1446 11.9627 76.2997 11.2739C76.4548 10.5851 76.774 10.0163 77.266 9.56747C77.758 9.11865 78.507 8.89201 79.5132 8.89201C80.5194 8.89201 81.2995 9.10976 81.7605 9.54525C82.2214 9.98074 82.5228 10.5362 82.6647 11.2117C82.8065 11.8871 82.873 12.6026 82.873 13.3625V21.7879H87.7885V13.4025C87.7885 12.8114 87.7752 12.1315 87.7486 11.3583C87.7221 10.5851 87.629 9.7941 87.4738 8.97645H87.4783Z" fill="white"/>
<path d="M97.1676 7.92327H101.077V4.42601H97.1676V0H93.134C93.134 0.982077 93.072 1.77751 92.9435 2.38187C92.8149 2.98622 92.6199 3.4306 92.3539 3.71056C92.088 3.99052 91.7511 4.1816 91.3434 4.27937C90.9356 4.37713 90.4657 4.42601 89.9338 4.42601V7.92327H92.4116V16.8997C92.4116 18.6995 92.8326 19.9615 93.6704 20.6903C94.5125 21.419 95.6871 21.7879 97.203 21.7879H101.197V17.8685H97.1631V7.92327H97.1676Z" fill="white"/>
<path d="M112.739 5.07925C111.857 5.51474 111.17 6.06132 110.678 6.72345C110.186 7.38557 109.835 8.06991 109.627 8.78981C109.565 8.99867 109.516 9.19419 109.472 9.38972L109.144 4.42601H104.353V21.7879H109.437V14.5845C109.437 13.6869 109.57 12.9403 109.835 12.3493C110.101 11.7583 110.496 11.2961 111.014 10.9584C111.533 10.6206 112.207 10.3896 113.031 10.2651C113.856 10.1407 114.831 10.0741 115.952 10.0741H116.497V4.42601H115.992C114.702 4.42601 113.616 4.64376 112.734 5.07925H112.739Z" fill="white"/>
<path d="M130.792 4.42601V7.71442H130.708C130.65 7.62998 130.526 7.41224 130.331 7.06118C130.136 6.71012 129.834 6.32351 129.427 5.90135C129.019 5.47919 128.465 5.12369 127.765 4.82596C127.064 4.53267 126.182 4.38158 125.118 4.38158C123.549 4.38158 122.295 4.75485 121.355 5.49697C120.416 6.24352 119.729 7.28781 119.294 8.63428C118.86 9.98075 118.643 11.5583 118.643 13.3536C118.643 15.1489 118.851 16.7086 119.272 18.0329C119.693 19.3527 120.38 20.3792 121.333 21.108C122.286 21.8368 123.545 22.2056 125.114 22.2056C126.151 22.2056 127.02 22.0723 127.72 21.8057C128.421 21.539 128.979 21.2235 129.4 20.8591C129.821 20.4947 130.136 20.1481 130.344 19.8282C130.553 19.5038 130.672 19.286 130.703 19.1749H130.787L131.585 21.7879H136V4.42601H130.787H130.792ZM130.499 15.6777C130.331 16.3798 129.994 16.9353 129.489 17.3441C128.983 17.7529 128.23 17.9573 127.219 17.9573C126.209 17.9573 125.446 17.7485 124.928 17.3263C124.409 16.9042 124.068 16.3487 123.899 15.6599C123.731 14.9711 123.647 14.2201 123.647 13.4069C123.647 12.5937 123.731 11.8427 123.899 11.1539C124.068 10.4651 124.409 9.90965 124.928 9.48749C125.446 9.06533 126.209 8.85647 127.219 8.85647C128.23 8.85647 128.983 9.052 129.489 9.44749C129.994 9.84299 130.331 10.3896 130.499 11.0917C130.668 11.7938 130.752 12.567 130.752 13.4069C130.752 14.2468 130.668 14.98 130.499 15.6821V15.6777Z" fill="white"/>
<path d="M10.6777 22.0634V16.7353C7.72571 16.7353 5.33664 14.3401 5.33664 11.3805H0C0 17.2908 4.77815 22.0812 10.6733 22.0856C10.3453 23.1121 10.168 24.2097 10.168 25.3474H15.509C15.509 22.3922 17.8981 19.9926 20.8501 19.9926V14.6378C16.0941 14.6378 12.0695 17.7529 10.6866 22.059L10.6777 22.0634Z" fill="white"/>
<path d="M15.5134 3.93275C15.8414 2.90624 16.0187 1.80862 16.0187 0.671013H10.6777C10.6777 3.62613 8.2886 6.02577 5.33661 6.02577V11.3805C10.0926 11.3805 14.1172 8.26544 15.5002 3.95941V9.28751C18.4521 9.28751 20.8412 11.6827 20.8412 14.6423H26.1823C26.1823 8.73204 21.4041 3.94164 15.509 3.9372L15.5134 3.93275Z" fill="white"/>
</g>
<defs>
<clipPath id="clip0_4_2118">
<rect width="136" height="30" fill="white"/>
</clipPath>
</defs>
</svg>
